<?xml version="1.0" standalone="no"?>
<!DOCTYPE svg PUBLIC "-//W3C//DTD SVG 20010904//EN"
 "http://www.w3.org/TR/2001/REC-SVG-20010904/DTD/svg10.dtd">
<svg version="1.0" xmlns="http://www.w3.org/2000/svg"
 width="64.000000pt" height="64.000000pt" viewBox="0 0 64.000000 64.000000"
 preserveAspectRatio="xMidYMid meet">

<g transform="translate(0.000000,64.000000) scale(0.100000,-0.100000)"
fill="#000000" stroke="none">
<path d="M180 560 c0 -19 7 -20 130 -20 l130 0 0 -80 c0 -73 2 -80 20 -80 19
0 20 7 20 100 l0 100 -150 0 c-143 0 -150 -1 -150 -20z"/>
<path d="M180 460 l0 -40 40 0 40 0 0 40 0 40 -40 0 -40 0 0 -40z"/>
<path d="M520 400 c0 -13 7 -20 20 -20 13 0 20 -7 20 -20 0 -19 -7 -20 -110
-20 -103 0 -110 -1 -110 -20 0 -19 7 -20 110 -20 103 0 110 -1 110 -20 0 -13
-7 -20 -20 -20 -13 0 -20 -7 -20 -20 0 -13 7 -20 20 -20 13 0 20 7 20 20 0 13
7 20 20 20 13 0 20 7 20 20 0 13 7 20 20 20 13 0 20 7 20 20 0 13 -7 20 -20
20 -13 0 -20 7 -20 20 0 13 -7 20 -20 20 -13 0 -20 7 -20 20 0 13 -7 20 -20
20 -13 0 -20 -7 -20 -20z"/>
<path d="M60 330 c0 -43 3 -50 20 -50 16 0 20 7 20 30 0 23 4 30 20 30 18 0
20 -7 20 -60 l0 -60 40 0 40 0 0 -80 c0 -73 2 -80 20 -80 19 0 20 7 20 100 l0
100 -40 0 -40 0 0 40 c0 33 3 40 20 40 13 0 20 -7 20 -20 0 -17 7 -20 40 -20
33 0 40 3 40 20 0 13 -7 20 -20 20 -13 0 -20 7 -20 20 0 19 -7 20 -100 20
l-100 0 0 -50z"/>
<path d="M440 180 l0 -80 -70 0 c-63 0 -70 -2 -70 -20 0 -19 7 -20 90 -20 l90
0 0 100 c0 93 -1 100 -20 100 -18 0 -20 -7 -20 -80z"/>
<path d="M60 160 c0 -18 7 -20 60 -20 53 0 60 2 60 20 0 18 -7 20 -60 20 -53
0 -60 -2 -60 -20z"/>
</g>
</svg>
