<svg width="512" height="512" viewBox="0 0 512 512" fill="none" xmlns="http://www.w3.org/2000/svg" >
<g clip-path="url(#clip0_36_242)">
<path opacity="0.615686" d="M223.5 54L233 54.5L223.5 55V54Z" fill="white" stroke="white"/>
<path opacity="0.615686" d="M249.5 54L263 54.5L249.5 55V54Z" fill="white" stroke="white"/>
<path opacity="0.615686" d="M279.5 54L289 54.5L279.5 55V54Z" fill="white" stroke="white"/>
<path opacity="0.615686" d="M214.5 55L220 55.5L214.5 56V55Z" fill="white" stroke="white"/>
<path opacity="0.615686" d="M292.5 55L298 55.5L292.5 56V55Z" fill="white" stroke="white"/>
<path opacity="0.615686" d="M208.5 56L213 56.5L208.5 57V56Z" fill="white" stroke="white"/>
<path opacity="0.615686" d="M299.5 56L304 56.5L299.5 57V56Z" fill="white" stroke="white"/>
<path opacity="0.615686" d="M203.5 57L207 57.5L203.5 58V57Z" fill="white" stroke="white"/>
<path opacity="0.615686" d="M305.5 57L309 57.5L305.5 58V57Z" fill="white" stroke="white"/>
<path opacity="0.615686" d="M198.5 58L202 58.5L198.5 59V58Z" fill="white" stroke="white"/>
<path opacity="0.615686" d="M310.5 58L314 58.5L310.5 59V58Z" fill="white" stroke="white"/>
<path opacity="0.615686" d="M194.5 59L197 59.5L191.5 61V60L194.5 59Z" fill="white" stroke="white"/>
<path opacity="0.615686" d="M315.5 59L318 59.5L315.5 60V59Z" fill="white" stroke="white"/>
<path opacity="0.615686" d="M187.5 61L190 61.5L187.5 62V61Z" fill="white" stroke="white"/>
<path opacity="0.615686" d="M322.5 61L325 61.5L322.5 62V61Z" fill="white" stroke="white"/>
<path opacity="0.615686" d="M175.5 65L177 65.5L173.5 67V66L175.5 65Z" fill="white" stroke="white"/>
<path opacity="0.615686" d="M238.5 65L246 65.5L238.5 66V65Z" fill="white" stroke="white"/>
<path opacity="0.615686" d="M266.5 65L274 65.5L266.5 66V65Z" fill="white" stroke="white"/>
<path opacity="0.615686" d="M335.5 65L339 66.5L337.5 67L335.5 65Z" fill="white" stroke="white"/>
<path opacity="0.615686" d="M223.5 66L232 66.5L223.5 67V66Z" fill="white" stroke="white"/>
<path opacity="0.615686" d="M251.5 66L261 66.5L251.5 67V66Z" fill="white" stroke="white"/>
<path opacity="0.615686" d="M280.5 66L289 66.5L280.5 67V66Z" fill="white" stroke="white"/>
<path opacity="0.615686" d="M170.5 67L172 67.5L168.5 69V68L170.5 67Z" fill="white" stroke="white"/>
<path opacity="0.615686" d="M215.5 67L221 67.5L215.5 68V67Z" fill="white" stroke="white"/>
<path opacity="0.615686" d="M291.5 67L297 67.5L291.5 68V67Z" fill="white" stroke="white"/>
<path opacity="0.615686" d="M340.5 67L344 68.5L342.5 69L340.5 67Z" fill="white" stroke="white"/>
<path opacity="0.615686" d="M210.5 68L214 68.5L210.5 69V68Z" fill="white" stroke="white"/>
<path opacity="0.615686" d="M298.5 68L303 68.5L298.5 69V68Z" fill="white" stroke="white"/>
<path opacity="0.615686" d="M165.5 69L167 69.5L159.5 73V72L165.5 69Z" fill="white" stroke="white"/>
<path opacity="0.615686" d="M205.5 69L208 69.5L205.5 70V69Z" fill="white" stroke="white"/>
<path opacity="0.615686" d="M304.5 69L307 69.5L304.5 70V69Z" fill="white" stroke="white"/>
<path opacity="0.615686" d="M345.5 69L353 72.5L351.5 73L345.5 70V69Z" fill="white" stroke="white"/>
<path opacity="0.615686" d="M200.5 70L204 70.5L200.5 71V70Z" fill="white" stroke="white"/>
<path opacity="0.615686" d="M308.5 70L312 70.5L308.5 71V70Z" fill="white" stroke="white"/>
<path opacity="0.615686" d="M196.5 71L199 71.5L193.5 73V72L196.5 71Z" fill="white" stroke="white"/>
<path opacity="0.615686" d="M313.5 71L319 72.5L316.5 73L313.5 72V71Z" fill="white" stroke="white"/>
<path opacity="0.615686" d="M157.5 73L156.5 75L143.5 82L144.5 80L157.5 73Z" fill="white" stroke="white"/>
<path opacity="0.615686" d="M189.5 73L192 73.5L184.5 76V75L189.5 73Z" fill="white" stroke="white"/>
<path opacity="0.615686" d="M320.5 73L331 76.5L329.5 77L320.5 74V73Z" fill="white" stroke="white"/>
<path opacity="0.615686" d="M356.5 74L364 78.5L362.5 78C358.767 77.4667 356.767 76.1333 356.5 74Z" fill="white" stroke="white"/>
<path opacity="0.615686" d="M178.5 77L180 77.5L176.5 79V78L178.5 77Z" fill="white" stroke="white"/>
<path opacity="0.615686" d="M173.5 79L175 79.5L171.5 81V80L173.5 79Z" fill="white" stroke="white"/>
<path opacity="0.615686" d="M337.5 79L341 80.5L339.5 81L337.5 79Z" fill="white" stroke="white"/>
<path opacity="0.615686" d="M365.5 79L381 89.5L378.5 88L366.5 81L365.5 79Z" fill="white" stroke="white"/>
<path opacity="0.615686" d="M141.5 82L140.5 84L131.5 90L133.5 87L141.5 82Z" fill="white" stroke="white"/>
<path opacity="0.615686" d="M166.5 82L168 82.5L159.5 87L160.5 85L166.5 82Z" fill="white" stroke="white"/>
<path opacity="0.615686" d="M344.5 82L355 87.5L353.5 87L344.5 83V82Z" fill="white" stroke="white"/>
<path opacity="0.615686" d="M155.5 88L154.5 90L144.5 96L146.5 93L155.5 88Z" fill="white" stroke="white"/>
<path opacity="0.615686" d="M358.5 89L362 91.5L360.5 91L358.5 89Z" fill="white" stroke="white"/>
<path opacity="0.615686" d="M129.5 90L127.5 93" stroke="white"/>
<path opacity="0.615686" d="M382.5 90L390 96.5L386.5 94L382.5 90Z" fill="white" stroke="white"/>
<path opacity="0.615686" d="M363.5 92L368 95.5L365.5 94L363.5 92Z" fill="white" stroke="white"/>
<path opacity="0.615686" d="M125.5 93L121.5 98L112.5 106L112 104L125.5 93Z" fill="white" stroke="white"/>
<path opacity="0.615686" d="M142.5 96L141.5 98" stroke="white"/>
<path opacity="0.615686" d="M369.5 96L370.5 98" stroke="white"/>
<path opacity="0.615686" d="M391.5 97L407 111.5L400.5 106L391.5 97Z" fill="white" stroke="white"/>
<path opacity="0.615686" d="M139.5 98L137.5 101C126.567 108.067 117.067 116.567 109 126.5L100.5 137L103 133.5C109.467 123.633 117.3 115.133 126.5 108L139.5 98Z" fill="white" stroke="white"/>
<path opacity="0.615686" d="M372.5 98C384.3 106.2 394.8 115.7 404 126.5L385.5 109L374.5 101L372.5 98Z" fill="white" stroke="white"/>
<path opacity="0.615686" d="M110.5 106L106 111.5L93.5 126L96 122.5L110.5 106Z" fill="white" stroke="white"/>
<path opacity="0.615686" d="M407.5 113C409.033 112.533 409.533 113.033 409 114.5L414.5 121L407.5 113Z" fill="white" stroke="white"/>
<path opacity="0.615686" d="M415.5 122L418.5 126" stroke="white"/>
<path opacity="0.615686" d="M92.5 127L90 130.5L85.5 137L87 134.5L92.5 127Z" fill="white" stroke="white"/>
<path opacity="0.615686" d="M419.5 127L425 133.5L422 131.5L419.5 127Z" fill="white" stroke="white"/>
<path opacity="0.615686" d="M404.5 128L420 148.5L418 147.5L404.5 128Z" fill="white" stroke="white"/>
<path opacity="0.615686" d="M425.5 135L426.5 137" stroke="white"/>
<path opacity="0.615686" d="M84.5 138L83.5 140" stroke="white"/>
<path opacity="0.615686" d="M99.5 138L98 140.5L84.5 163L85 161.5C88.6667 152.5 93.5 144.667 99.5 138Z" fill="white" stroke="white"/>
<path opacity="0.615686" d="M427.5 138L428.5 140" stroke="white"/>
<path opacity="0.615686" d="M82.5 141L82 142.5L80.5 145L81 143.5L82.5 141Z" fill="white" stroke="white"/>
<path opacity="0.615686" d="M429.5 141L432 144.5L430 143.5L429.5 141Z" fill="white" stroke="white"/>
<path opacity="0.615686" d="M79.5 146L79 147.5L77.5 150L78 148.5L79.5 146Z" fill="white" stroke="white"/>
<path opacity="0.615686" d="M432.5 146L435 149.5L433 148.5L432.5 146Z" fill="white" stroke="white"/>
<path opacity="0.615686" d="M420.5 150L429 164.5L427 163.5L420.5 150Z" fill="white" stroke="white"/>
<path opacity="0.615686" d="M74.5 155L74 156.5L72.5 160L72 158.5L74.5 155Z" fill="white" stroke="white"/>
<path opacity="0.615686" d="M438.5 157L440 159.5H439L438.5 157Z" fill="white" stroke="white"/>
<path opacity="0.615686" d="M69.5 165L70 166.5L64.5 179L64 177.5L69.5 165Z" fill="white" stroke="white"/>
<path opacity="0.615686" d="M442.5 165L444 168.5H443L442.5 165Z" fill="white" stroke="white"/>
<path opacity="0.615686" d="M82.5 166L83 167.5L79.5 174L79 172.5L82.5 166Z" fill="white" stroke="white"/>
<path opacity="0.615686" d="M429.5 166L433 173.5H432L429.5 166Z" fill="white" stroke="white"/>
<path opacity="0.615686" d="M444.5 170L446 173.5H445L444.5 170Z" fill="white" stroke="white"/>
<path opacity="0.615686" d="M78.5 175L79 176.5L77.5 179L77 177.5L78.5 175Z" fill="white" stroke="white"/>
<path opacity="0.615686" d="M433.5 175L435 178.5H434L433.5 175Z" fill="white" stroke="white"/>
<path opacity="0.615686" d="M446.5 175L449 181.5H448L446.5 175Z" fill="white" stroke="white"/>
<path opacity="0.615686" d="M254.5 183L260 184.5L258.5 185L254.5 184L252 185C252.733 186.8 252.233 187.467 250.5 187L191 245.5L219 217.5V216H220.5L254.5 183Z" fill="white" stroke="white"/>
<path opacity="0.615686" d="M61.5 186L62 188.5H61L61.5 186Z" fill="white" stroke="white"/>
<path opacity="0.615686" d="M260.5 186L320 244.5L325 250.5V252.5L321.5 255V254L324 252.5V250.5L319 244.5L261.5 187L260.5 186Z" fill="white" stroke="white"/>
<path opacity="0.615686" d="M450.5 186L451 188.5H450L450.5 186Z" fill="white" stroke="white"/>
<path opacity="0.615686" d="M72.5 192L73 194.5L71.5 198L71 195.5L72.5 192Z" fill="white" stroke="white"/>
<path opacity="0.615686" d="M439.5 192L441 197.5H440L439.5 192Z" fill="white" stroke="white"/>
<path opacity="0.615686" d="M59.5 193L60 195.5H59L59.5 193Z" fill="white" stroke="white"/>
<path opacity="0.615686" d="M452.5 193L453 195.5H452L452.5 193Z" fill="white" stroke="white"/>
<path opacity="0.615686" d="M58.5 197L59 199.5H58L58.5 197Z" fill="white" stroke="white"/>
<path opacity="0.615686" d="M453.5 197L454 199.5H453L453.5 197Z" fill="white" stroke="white"/>
<path opacity="0.615686" d="M70.5 199L71 201.5H70L70.5 199Z" fill="white" stroke="white"/>
<path opacity="0.615686" d="M254.5 199H257.5L317 257.5L315.5 258L257.5 200H254.5L197.5 257L190 258L189 254.5L191 255.5C190.4 257.767 191.9 258.267 195.5 257L254.5 199Z" fill="white" stroke="white"/>
<path opacity="0.615686" d="M441.5 199L442 201.5H441L441.5 199Z" fill="white" stroke="white"/>
<path opacity="0.615686" d="M57.5 201L58 204.5H57L57.5 201Z" fill="white" stroke="white"/>
<path opacity="0.615686" d="M454.5 201L455 204.5H454L454.5 201Z" fill="white" stroke="white"/>
<path opacity="0.615686" d="M69.5 203L70 206.5H69L69.5 203Z" fill="white" stroke="white"/>
<path opacity="0.615686" d="M442.5 203L443 206.5H442L442.5 203Z" fill="white" stroke="white"/>
<path opacity="0.615686" d="M56.5 206L57 210.5H56L56.5 206Z" fill="white" stroke="white"/>
<path opacity="0.615686" d="M455.5 206L456 210.5H455L455.5 206Z" fill="white" stroke="white"/>
<path opacity="0.615686" d="M68.5 208L69 211.5H68L68.5 208Z" fill="white" stroke="white"/>
<path opacity="0.615686" d="M443.5 208L444 211.5H443L443.5 208Z" fill="white" stroke="white"/>
<path opacity="0.615686" d="M55.5 212L56 216.5H55L55.5 212Z" fill="white" stroke="white"/>
<path opacity="0.615686" d="M456.5 212L457 216.5H456L456.5 212Z" fill="white" stroke="white"/>
<path opacity="0.615686" d="M67.5 213L68 217.5H67L67.5 213Z" fill="white" stroke="white"/>
<path opacity="0.615686" d="M444.5 214L445 217.5H444L444.5 214Z" fill="white" stroke="white"/>
<path opacity="0.615686" d="M54.5 219L55 225.5H54L54.5 219Z" fill="white" stroke="white"/>
<path opacity="0.615686" d="M457.5 219L458 226.5H457L457.5 219Z" fill="white" stroke="white"/>
<path opacity="0.615686" d="M66.5 220L67 226.5H66L66.5 220Z" fill="white" stroke="white"/>
<path opacity="0.615686" d="M445.5 220L446 226.5H445L445.5 220Z" fill="white" stroke="white"/>
<path opacity="0.615686" d="M53.5 230L54 252.5H53L53.5 230Z" fill="white" stroke="white"/>
<path opacity="0.615686" d="M65.5 230L66 254.5H65L65.5 230Z" fill="white" stroke="white"/>
<path opacity="0.615686" d="M446.5 231L447 253.5H446L446.5 231Z" fill="white" stroke="white"/>
<path opacity="0.615686" d="M458.5 231L459 252.5H458L458.5 231Z" fill="white" stroke="white"/>
<path opacity="0.615686" d="M189.5 247L188.5 249" stroke="white"/>
<path opacity="0.615686" d="M187.5 250L188 253.5H187L187.5 250Z" fill="white" stroke="white"/>
<path opacity="0.615686" d="M254.5 254H257.5L264.5 260L317 312.5L265.5 262L257.5 255H254.5L252 256L249.5 260L192 316.5L188 321.5V325L191 326.5C190.6 328.367 192.433 328.867 196.5 328L250.5 274L256.5 270L311 323.5L313.5 327L320.5 328L322 327.5C322.333 329.5 320.167 330 315.5 329L310 324.5L262.5 276L255.5 271L196.5 329H190C191 326.467 190.5 325.467 188.5 326C187.033 325.533 186.533 324.033 187 321.5L249.5 258C251.033 258.533 251.533 258.033 251 256.5L254.5 254Z" fill="white" stroke="white"/>
<path opacity="0.615686" d="M321.5 256L320.5 258L318 257.5L321.5 256Z" fill="white" stroke="white"/>
<path opacity="0.615686" d="M65.5 257L66 281.5H65L65.5 257Z" fill="white" stroke="white"/>
<path opacity="0.615686" d="M446.5 257L447 281.5H446L446.5 257Z" fill="white" stroke="white"/>
<path opacity="0.615686" d="M458.5 259L459 281.5H458L458.5 259Z" fill="white" stroke="white"/>
<path opacity="0.615686" d="M53.5 260L54 281.5H53L53.5 260Z" fill="white" stroke="white"/>
<path opacity="0.615686" d="M54.5 286L55 292.5H54L54.5 286Z" fill="white" stroke="white"/>
<path opacity="0.615686" d="M66.5 286L67 291.5H66L66.5 286Z" fill="white" stroke="white"/>
<path opacity="0.615686" d="M445.5 286L446 291.5H445L445.5 286Z" fill="white" stroke="white"/>
<path opacity="0.615686" d="M457.5 286L458 292.5H457L457.5 286Z" fill="white" stroke="white"/>
<path opacity="0.615686" d="M67.5 294L68 298.5H67L67.5 294Z" fill="white" stroke="white"/>
<path opacity="0.615686" d="M444.5 294L445 298.5H444L444.5 294Z" fill="white" stroke="white"/>
<path opacity="0.615686" d="M55.5 295L56 299.5H55L55.5 295Z" fill="white" stroke="white"/>
<path opacity="0.615686" d="M456.5 295L457 299.5H456L456.5 295Z" fill="white" stroke="white"/>
<path opacity="0.615686" d="M68.5 300L69 304.5H68L68.5 300Z" fill="white" stroke="white"/>
<path opacity="0.615686" d="M443.5 301L444 304.5H443L443.5 301Z" fill="white" stroke="white"/>
<path opacity="0.615686" d="M56.5 302L57 305.5H56L56.5 302Z" fill="white" stroke="white"/>
<path opacity="0.615686" d="M455.5 302L456 305.5H455L455.5 302Z" fill="white" stroke="white"/>
<path opacity="0.615686" d="M69.5 306L70 308.5H69L69.5 306Z" fill="white" stroke="white"/>
<path opacity="0.615686" d="M442.5 306L443 308.5H442L442.5 306Z" fill="white" stroke="white"/>
<path opacity="0.615686" d="M454.5 307L455 310.5H454L454.5 307Z" fill="white" stroke="white"/>
<path opacity="0.615686" d="M57.5 308L58 310.5H57L57.5 308Z" fill="white" stroke="white"/>
<path opacity="0.615686" d="M70.5 310L72 316.5H71L70.5 310Z" fill="white" stroke="white"/>
<path opacity="0.615686" d="M441.5 310L442 312.5H441L441.5 310Z" fill="white" stroke="white"/>
<path opacity="0.615686" d="M58.5 312L59 314.5H58L58.5 312Z" fill="white" stroke="white"/>
<path opacity="0.615686" d="M453.5 312L454 314.5H453L453.5 312Z" fill="white" stroke="white"/>
<path opacity="0.615686" d="M317.5 314C319.033 313.533 319.533 314.033 319 315.5L323.5 321L317.5 314Z" fill="white" stroke="white"/>
<path opacity="0.615686" d="M440.5 314L441 316.5H440L440.5 314Z" fill="white" stroke="white"/>
<path opacity="0.615686" d="M59.5 316L60 318.5H59L59.5 316Z" fill="white" stroke="white"/>
<path opacity="0.615686" d="M452.5 316L453 318.5H452L452.5 316Z" fill="white" stroke="white"/>
<path opacity="0.615686" d="M72.5 318L75 326.5H74L72.5 318Z" fill="white" stroke="white"/>
<path opacity="0.615686" d="M439.5 318L440 320.5L438.5 324L438 321.5L439.5 318Z" fill="white" stroke="white"/>
<path opacity="0.615686" d="M60.5 320L61 322.5H60L60.5 320Z" fill="white" stroke="white"/>
<path opacity="0.615686" d="M451.5 320L452 322.5H451L451.5 320Z" fill="white" stroke="white"/>
<path opacity="0.615686" d="M437.5 325L438 326.5L435.5 332L435 330.5L437.5 325Z" fill="white" stroke="white"/>
<path opacity="0.615686" d="M75.5 328L77 331.5H76L75.5 328Z" fill="white" stroke="white"/>
<path opacity="0.615686" d="M77.5 333L79 336.5H78L77.5 333Z" fill="white" stroke="white"/>
<path opacity="0.615686" d="M434.5 333L435 334.5L433.5 337L433 335.5L434.5 333Z" fill="white" stroke="white"/>
<path opacity="0.615686" d="M65.5 336L67 339.5H66L65.5 336Z" fill="white" stroke="white"/>
<path opacity="0.615686" d="M446.5 336L447 337.5L445.5 340L445 338.5L446.5 336Z" fill="white" stroke="white"/>
<path opacity="0.615686" d="M79.5 338L82 343.5H81L79.5 338Z" fill="white" stroke="white"/>
<path opacity="0.615686" d="M432.5 338L433 339.5L430.5 344L430 342.5L432.5 338Z" fill="white" stroke="white"/>
<path opacity="0.615686" d="M67.5 341L69 344.5H68L67.5 341Z" fill="white" stroke="white"/>
<path opacity="0.615686" d="M444.5 341L445 342.5L443.5 345L443 343.5L444.5 341Z" fill="white" stroke="white"/>
<path opacity="0.615686" d="M442.5 346L443 347.5L434.5 363L435 361.5L442.5 346Z" fill="white" stroke="white"/>
<path opacity="0.615686" d="M83.5 347L85 349.5L83 348.5L83.5 347Z" fill="white" stroke="white"/>
<path opacity="0.615686" d="M428.5 347L429 348.5L427 349.5L428.5 347Z" fill="white" stroke="white"/>
<path opacity="0.615686" d="M70.5 348L77 360.5L75 359.5L70 349.5L70.5 348Z" fill="white" stroke="white"/>
<path opacity="0.615686" d="M425.5 353L425 354.5L421.5 361L422 359.5L425.5 353Z" fill="white" stroke="white"/>
<path opacity="0.615686" d="M88.5 357L97 369.5L94 367.5L88.5 357Z" fill="white" stroke="white"/>
<path opacity="0.615686" d="M420.5 362L420 363.5L406.5 382L409 378.5L420.5 362Z" fill="white" stroke="white"/>
<path opacity="0.615686" d="M78.5 364L81 367.5L79 366.5L78.5 364Z" fill="white" stroke="white"/>
<path opacity="0.615686" d="M433.5 364L433 365.5L431.5 368L432 366.5L433.5 364Z" fill="white" stroke="white"/>
<path opacity="0.615686" d="M81.5 369C90.9667 384.867 102.467 398.7 116 410.5L100 395.5C92.2667 387.433 86.1 378.6 81.5 369Z" fill="white" stroke="white"/>
<path opacity="0.615686" d="M430.5 369L430 370.5C420.733 386.567 409.233 400.4 395.5 412L389.5 417L394.5 411L411 395.5L430.5 369Z" fill="white" stroke="white"/>
<path opacity="0.615686" d="M97.5 371L115 391.5L106 383.5L97.5 371Z" fill="white" stroke="white"/>
<path opacity="0.615686" d="M405.5 383L398 391.5L393.5 397L396 393.5L405.5 383Z" fill="white" stroke="white"/>
<path opacity="0.615686" d="M115.5 393L118.5 395L138 412.5L134.5 410C125.967 405 119.633 399.333 115.5 393Z" fill="white" stroke="white"/>
<path opacity="0.615686" d="M391.5 397L383.5 406L371.5 415L373.5 412C380.5 408 386.5 403 391.5 397Z" fill="white" stroke="white"/>
<path opacity="0.615686" d="M117.5 411C124.967 418.533 133.467 425.033 143 430.5L141.5 430L123.5 418L117.5 411Z" fill="white" stroke="white"/>
<path opacity="0.615686" d="M139.5 413L140.5 415" stroke="white"/>
<path opacity="0.615686" d="M142.5 415L143.5 417" stroke="white"/>
<path opacity="0.615686" d="M369.5 415L368.5 417" stroke="white"/>
<path opacity="0.615686" d="M145.5 417L146.5 419" stroke="white"/>
<path opacity="0.615686" d="M366.5 417L365.5 419" stroke="white"/>
<path opacity="0.615686" d="M387.5 417L385.5 420" stroke="white"/>
<path opacity="0.615686" d="M148.5 419L152 421.5L150.5 421L148.5 419Z" fill="white" stroke="white"/>
<path opacity="0.615686" d="M363.5 419L362.5 421L360.5 422L361.5 420L363.5 419Z" fill="white" stroke="white"/>
<path opacity="0.615686" d="M383.5 420L381.5 423" stroke="white"/>
<path opacity="0.615686" d="M153.5 422L161 426.5L159.5 426C155.767 425.467 153.767 424.133 153.5 422Z" fill="white" stroke="white"/>
<path opacity="0.615686" d="M358.5 422L357.5 424L355.5 425L356.5 423L358.5 422Z" fill="white" stroke="white"/>
<path opacity="0.615686" d="M379.5 423L377.5 426L369.5 431L370.5 429L379.5 423Z" fill="white" stroke="white"/>
<path opacity="0.615686" d="M344.5 429L346 429.5L338.5 433V432L344.5 429Z" fill="white" stroke="white"/>
<path opacity="0.615686" d="M168.5 430L174 432.5L172.5 433L168.5 431V430Z" fill="white" stroke="white"/>
<path opacity="0.615686" d="M144.5 431L148 433.5L146.5 433L144.5 431Z" fill="white" stroke="white"/>
<path opacity="0.615686" d="M367.5 431L366.5 433L364.5 434L365.5 432L367.5 431Z" fill="white" stroke="white"/>
<path opacity="0.615686" d="M175.5 433L179 434.5L177.5 435L175.5 433Z" fill="white" stroke="white"/>
<path opacity="0.615686" d="M335.5 433L337 433.5L333.5 435V434L335.5 433Z" fill="white" stroke="white"/>
<path opacity="0.615686" d="M330.5 435L332 435.5L318.5 440V439L330.5 435Z" fill="white" stroke="white"/>
<path opacity="0.615686" d="M360.5 435L359.5 437L348.5 442V441L360.5 435Z" fill="white" stroke="white"/>
<path opacity="0.615686" d="M153.5 436L164 441.5L162.5 442L154.5 438L153.5 436Z" fill="white" stroke="white"/>
<path opacity="0.615686" d="M186.5 437L191 438.5L188.5 439L186.5 437Z" fill="white" stroke="white"/>
<path opacity="0.615686" d="M192.5 439L198 440.5L195.5 441L192.5 440V439Z" fill="white" stroke="white"/>
<path opacity="0.615686" d="M314.5 440L317 440.5L314.5 441V440Z" fill="white" stroke="white"/>
<path opacity="0.615686" d="M199.5 441L202 441.5L199.5 442V441Z" fill="white" stroke="white"/>
<path opacity="0.615686" d="M310.5 441L313 441.5L310.5 442V441Z" fill="white" stroke="white"/>
<path opacity="0.615686" d="M203.5 442L207 442.5L203.5 443V442Z" fill="white" stroke="white"/>
<path opacity="0.615686" d="M305.5 442L309 442.5L305.5 443V442Z" fill="white" stroke="white"/>
<path opacity="0.615686" d="M167.5 443L171 444.5L169.5 445L167.5 443Z" fill="white" stroke="white"/>
<path opacity="0.615686" d="M208.5 443L212 443.5L208.5 444V443Z" fill="white" stroke="white"/>
<path opacity="0.615686" d="M300.5 443L304 443.5L300.5 444V443Z" fill="white" stroke="white"/>
<path opacity="0.615686" d="M343.5 443L345 443.5L341.5 445V444L343.5 443Z" fill="white" stroke="white"/>
<path opacity="0.615686" d="M214.5 444L218 444.5L214.5 445V444Z" fill="white" stroke="white"/>
<path opacity="0.615686" d="M294.5 444L298 444.5L294.5 445V444Z" fill="white" stroke="white"/>
<path opacity="0.615686" d="M172.5 445L176 446.5L174.5 447L172.5 445Z" fill="white" stroke="white"/>
<path opacity="0.615686" d="M221.5 445L228 445.5L221.5 446V445Z" fill="white" stroke="white"/>
<path opacity="0.615686" d="M284.5 445L291 445.5L284.5 446V445Z" fill="white" stroke="white"/>
<path opacity="0.615686" d="M338.5 445L340 445.5L336.5 447V446L338.5 445Z" fill="white" stroke="white"/>
<path opacity="0.615686" d="M232.5 446L252 446.5L232.5 447V446Z" fill="white" stroke="white"/>
<path opacity="0.615686" d="M260.5 446L280 446.5L260.5 447V446Z" fill="white" stroke="white"/>
<path opacity="0.615686" d="M186.5 450L189 450.5L186.5 451V450Z" fill="white" stroke="white"/>
<path opacity="0.615686" d="M323.5 450L326 450.5L320.5 452V451L323.5 450Z" fill="white" stroke="white"/>
<path opacity="0.615686" d="M193.5 452L196 452.5L193.5 453V452Z" fill="white" stroke="white"/>
<path opacity="0.615686" d="M316.5 452L319 452.5L316.5 453V452Z" fill="white" stroke="white"/>
<path opacity="0.615686" d="M197.5 453L205 454.5L201.5 455L197.5 454V453Z" fill="white" stroke="white"/>
<path opacity="0.615686" d="M312.5 453L315 453.5L312.5 454V453Z" fill="white" stroke="white"/>
<path opacity="0.615686" d="M307.5 454L311 454.5L307.5 455V454Z" fill="white" stroke="white"/>
<path opacity="0.615686" d="M206.5 455L211 455.5L206.5 456V455Z" fill="white" stroke="white"/>
<path opacity="0.615686" d="M301.5 455L306 455.5L301.5 456V455Z" fill="white" stroke="white"/>
<path opacity="0.615686" d="M212.5 456L217 456.5L212.5 457V456Z" fill="white" stroke="white"/>
<path opacity="0.615686" d="M294.5 456L300 456.5L294.5 457V456Z" fill="white" stroke="white"/>
<path opacity="0.615686" d="M220.5 457L228 457.5L220.5 458V457Z" fill="white" stroke="white"/>
<path opacity="0.615686" d="M284.5 457L292 457.5L284.5 458V457Z" fill="white" stroke="white"/>
<path opacity="0.615686" d="M232.5 458L251 458.5L232.5 459V458Z" fill="white" stroke="white"/>
<path opacity="0.615686" d="M261.5 458L280 458.5L261.5 459V458Z" fill="white" stroke="white"/>
<path opacity="0.996078" d="M233.5 54L262.5 55L263.5 54H278.5L279.5 55L298.5 56L318.5 60L353.5 73C374.167 83.3333 392 96.5 407 112.5C426.133 132.033 440.467 156.367 450 185.5L455 205.5V210.5L457 217.5V226.5L458 227.5V285.5L457 286.5V294.5L454 311.5L443 345.5C431.333 371.5 415.5 393.333 395.5 411C378.7 426.2 358.7 438.2 335.5 447L311.5 454L294.5 456L293.5 457L257.5 458L255.5 457L254.5 458H228.5L227.5 457H217.5L196.5 453L166.5 443C140.5 431.333 118.667 415.5 101 395.5C83.2 375.967 69.8667 351.967 61 323.5L57 307.5L55 286.5L54 285.5V226.5L60 192.5L70 164.5C80.5333 141.7 94.3667 122.2 111.5 106C127.233 90.7333 145.9 78.4 167.5 69L197.5 59L220.5 55H232.5L233.5 54ZM239 65L238 66H224L223 67L211 68L197 71L179 77C159 85 141.667 95.3333 127 108C111.667 121.333 98.6667 137 88 155C80.6667 167 75 180.667 71 196L67 214L66 230L65 231V255L66 256L65 258L66 292L70 314L75 330C84.3333 355.333 97.6667 376.667 115 394C131 410 150.333 423 173 433L204 443L221 445L222 446H232L233 447H252L253 446C257 444.667 259.667 445 261 447H280L281 446L298 445L330 437C354.667 427.667 376 414.333 394 397C408 383 419.667 367 429 349L440 321L444 305L445 293L446 292V283L447 282V258L446 257L447 254L446 221L441 196L435 178C427 158 416.667 141 404 127C388 108.333 368.667 93.3333 346 82C335.333 77.3333 324 73.3333 312 70L297 67L275 66L274 65C269.333 63.6667 266.667 64 266 66L239 65Z" fill="white" stroke="white"/>
<path opacity="0.996078" d="M254.5 184L260 185C259.267 186.8 259.767 187.467 261.5 187L319 244.5L324 250.5V252.5L321 254C322.2 257.533 320.367 258.533 315.5 257L257.5 199H254.5L197.5 256L191 257L189.5 254C187.233 254.6 186.733 253.1 188 249.5L250.5 187H252C251.267 185.2 251.767 184.533 253.5 185L254.5 184Z" fill="white" stroke="white"/>
<path opacity="0.996078" d="M254.5 255H257.5L265.5 262L317 313.5L324 321.5V325L321 326.5C321.4 328.367 319.567 328.867 315.5 328L311 324.5L261.5 274L255.5 270L196.5 328H191L189.5 325C187.5 325.6 187 324.433 188 321.5L248.5 260L252 257.5C251.533 256.033 252.033 255.533 253.5 256L254.5 255Z" fill="white" stroke="white"/>
</g>
<defs>
<clipPath id="clip0_36_242">
<rect width="512" height="512" fill="white"/>
</clipPath>
</defs>
</svg>
